<?xml version="1.0" encoding="UTF-8"?>
<svg version="1.1" xmlns="http://www.w3.org/2000/svg" width="1024" height="768">
<path d="M0 0 C337.92 0 675.84 0 1024 0 C1024 253.44 1024 506.88 1024 768 C686.08 768 348.16 768 0 768 C0 514.56 0 261.12 0 0 Z " fill="#FDFDFD" transform="translate(0,0)"/>
<path d="M0 0 C24.42 0 48.84 0 74 0 C74 33.33 74 66.66 74 101 C119.54 101 165.08 101 212 101 C212 89.78 212 78.56 212 67 C195.5 67 179 67 162 67 C162 44.89 162 22.78 162 0 C188.09300874 -0.16043524 188.09300874 -0.16043524 199.24023438 -0.1953125 C206.83792332 -0.21919691 214.4354189 -0.24741186 222.03295898 -0.30175781 C228.16026487 -0.34531131 234.28736331 -0.3691575 240.41481209 -0.37950897 C242.74912848 -0.38688321 245.0834339 -0.40128333 247.41766167 -0.42292023 C250.69462234 -0.45207969 253.97073259 -0.45595065 257.24780273 -0.45410156 C258.68603394 -0.47567322 258.68603394 -0.47567322 260.15332031 -0.49768066 C267.49913559 -0.45301257 273.63397346 1.17343681 279.33984375 5.96484375 C279.86707031 6.61582031 280.39429688 7.26679688 280.9375 7.9375 C281.75541016 8.91009766 281.75541016 8.91009766 282.58984375 9.90234375 C286.46661157 15.66917012 286.2789927 20.95885282 286.24050903 27.69966125 C286.24307231 29.33540683 286.24307231 29.33540683 286.24568737 31.00419778 C286.24898626 34.66473022 286.2379718 38.32508009 286.22705078 41.9855957 C286.22648675 44.6069895 286.22680306 47.22838361 286.22793579 49.84977722 C286.22898421 55.49679269 286.22271212 61.14376192 286.21146011 66.79076576 C286.19520223 74.95536632 286.18999681 83.11994452 286.18748413 91.28455951 C286.18310748 104.53127175 286.16979919 117.77795934 286.15087891 131.0246582 C286.13251933 143.89216997 286.1183632 156.75967504 286.10986328 169.62719727 C286.10933783 170.42042447 286.10881239 171.21365168 286.10827102 172.03091607 C286.10566093 176.01032581 286.10313352 179.9897356 286.10064721 183.96914542 C286.07991565 216.97945211 286.04304639 249.98971299 286 283 C261.58 283 237.16 283 212 283 C212 244.06 212 205.12 212 165 C166.46 165 120.92 165 74 165 C74 184.14 74 203.28 74 223 C70.37 225.97 66.74 228.94 63 232 C60.71971969 233.92833994 58.44686253 235.86034375 56.1875 237.8125 C54.99351953 238.83987855 53.79950821 239.86722125 52.60546875 240.89453125 C51.71093994 241.66531006 51.71093994 241.66531006 50.79833984 242.45166016 C47.8699783 244.97292935 44.93470651 247.48612243 42 250 C40.83329885 250.99995977 39.66663221 251.99995981 38.5 253 C36.16666667 255 33.83333333 257 31.5 259 C30.92193604 259.49556396 30.34387207 259.99112793 29.74829102 260.50170898 C28.5876429 261.49638815 27.42667544 262.49069481 26.26538086 263.48461914 C23.25383415 266.06298368 20.24897973 268.64860326 17.25390625 271.24609375 C16.63580078 271.78041016 16.01769531 272.31472656 15.38085938 272.86523438 C14.21208799 273.87582617 13.04525309 274.88866426 11.88085938 275.90429688 C8.0418351 279.21793247 4.16596862 282.02430813 0 285 C0 190.95 0 96.9 0 0 Z " fill="#010101" transform="translate(422,240)"/>
<path d="M0 0 C25.08 0 50.16 0 76 0 C76 93.72 76 187.44 76 284 C11 284 11 284 5 280 C1.26867413 275.86528755 -0.12559587 272.9198294 -0.12304783 267.38293171 C-0.12503888 266.42947497 -0.12702993 265.47601822 -0.12908131 264.49366885 C-0.12616847 263.44406944 -0.12325563 262.39447003 -0.12025452 261.31306458 C-0.12110894 260.19977506 -0.12196337 259.08648554 -0.12284368 257.93945998 C-0.12449754 254.18984849 -0.11897861 250.44028123 -0.11352539 246.69067383 C-0.11324347 244.01046141 -0.11335726 241.33025175 -0.1139679 238.65003967 C-0.11449273 232.86986135 -0.11135014 227.0896943 -0.10573006 221.30951881 C-0.0976096 212.95231372 -0.09499927 204.59511408 -0.09374207 196.23790547 C-0.09155241 182.67951527 -0.08489465 169.12113108 -0.07543945 155.56274414 C-0.06626311 142.39054393 -0.05918336 129.21834534 -0.05493164 116.04614258 C-0.05466892 115.23446795 -0.05440619 114.42279332 -0.05413551 113.5865225 C-0.05283049 109.51466703 -0.05156678 105.44281155 -0.05032361 101.37095606 C-0.03995367 67.58063205 -0.0215168 33.79031921 0 0 Z " fill="#020202" transform="translate(315,239)"/>
</svg>
